<?xml version="1.0" encoding="utf-8"?>
<!-- Generator: Adobe Illustrator 22.1.0, SVG Export Plug-In . SVG Version: 6.00 Build 0)  -->
<svg version="1.1" id="Layer_1" xmlns="http://www.w3.org/2000/svg" xmlns:xlink="http://www.w3.org/1999/xlink" x="0px" y="0px"
	 viewBox="0 0 297.5 337.3" style="enable-background:new 0 0 297.5 337.3;" xml:space="preserve">
<style type="text/css">
	.st0{fill:#EFC725;}
	.st1{fill:#FBDE34;}
	.st2{fill:#EBEBEB;}
	.st3{fill:#FFFFFF;}
</style>
<polygon class="st0" points="27.1,303.6 0,0 297.5,0 270.4,303.6 148.5,337.3 "/>
<polygon class="st1" points="148.5,311.2 246.9,283.9 270.1,24.5 148.5,24.5 "/>
<polygon class="st2" points="148.4,233.8 148.3,233.8 106.8,222.6 104.1,192.9 84,192.9 66.8,192.9 72,251.4 148.2,272.6 
	148.4,272.5 "/>
<polygon class="st2" points="153.4,174.3 153.4,137.1 107.6,137.1 113,78.6 153.5,77.5 153.4,38.8 79.3,38.8 76.5,66.3 67.8,164.3 
	66.9,174.3 76.9,174.3 "/>
<polygon class="st3" points="153.2,77.6 153.3,77.6 194,80 197.5,118.4 217.6,118.4 234.8,118.4 228.3,46.5 153.4,38.8 153.2,38.9 
	"/>
<polyline class="st3" points="231,77.7 227.8,38.8 149.2,38.8 149.2,63 149.2,77.6 149.2,77.7 231,77.7 "/>
<polygon class="st3" points="148.3,137.1 148.3,174.3 194.1,174.3 189.8,222.6 148.3,233.8 148.3,272.6 224.6,251.4 225.2,245.1 
	233.9,147.1 234.8,137.1 224.8,137.1 "/>
<path class="st3" d="M226.2,76.1"/>
<path class="st3" d="M225.7,76.1"/>
</svg>
