<?xml version="1.0" encoding="utf-8"?>
<!-- Generator: Adobe Illustrator 22.1.0, SVG Export Plug-In . SVG Version: 6.00 Build 0)  -->
<svg version="1.1" id="Layer_1" xmlns="http://www.w3.org/2000/svg" xmlns:xlink="http://www.w3.org/1999/xlink" x="0px" y="0px"
	 viewBox="0 0 767.8 768" style="enable-background:new 0 0 767.8 768;" xml:space="preserve">
<style type="text/css">
	.st0{fill:#FF9900;}
	.st1{fill:#FFB13B;}
	.st2{fill:#DE8500;}
	.st3{fill:#FFFFFF;}
	.st4{fill:#3F3F3F;}
	.st5{fill:#FFFFFF;stroke:#000000;stroke-width:0.5035;}
</style>
<title>SVG Logo</title>
<a xlink:href="http://www.w3.org/Graphics/SVG/"  xlink:title="W3C SVG Working Group home page">
	<path id="background" class="st0" d="M30.7,0h706.6c17,0,30.7,13.8,30.7,30.7v706.6c0,17-13.8,30.7-30.7,30.7H30.7
		C13.8,768,0,754.2,0,737.3V30.7C0,13.8,13.8,0,30.7,0z"/>
	<path id="top-left" class="st1" d="M30.7,0h322.6c17,0,30.7,13.8,30.7,30.7v322.6c0,17-13.8,30.7-30.7,30.7H30.7
		C13.8,384,0,370.2,0,353.3V30.7C0,13.8,13.8,0,30.7,0z"/>
	<path id="bottom-right" class="st2" d="M414.7,384h322.6c17,0,30.7,13.8,30.7,30.7v322.6c0,17-13.8,30.7-30.7,30.7H414.7
		c-17,0-30.7-13.8-30.7-30.7V414.7C384,397.8,397.8,384,414.7,384z"/>
	<g id="circles">
		<circle id="n" class="st0" cx="384" cy="141.3" r="141.3"/>
		<circle id="ne" class="st0" cx="556" cy="212" r="141.3"/>
		<circle id="e" class="st0" cx="626.7" cy="384" r="141.3"/>
		<circle id="se" class="st0" cx="556" cy="556" r="141.3"/>
		<circle id="s" class="st0" cx="384" cy="626.7" r="141.3"/>
		<circle id="sw" class="st0" cx="212" cy="556" r="141.3"/>
		<circle id="w" class="st0" cx="141.3" cy="384" r="141.3"/>
		<circle id="nw" class="st0" cx="212" cy="212" r="141.3"/>
	</g>
	<g id="stars">
		<path id="black-star" d="M484.5,141.2c0-55.5-45-100.5-100.6-100.5c-55.6,0-100.6,45-100.6,100.5c-39.2-39.2-102.9-39.2-142.1,0
			c-39.3,39.3-39.3,103,0,142.3c-55.6,0-100.6,45-100.6,100.5c0,55.5,45.1,100.6,100.6,100.6c-39.3,39.2-39.3,102.9,0,142.2
			c39.2,39.2,102.9,39.2,142.1,0c0,55.5,45,100.5,100.6,100.5c55.6,0,100.6-45,100.6-100.5c39.3,39.2,103,39.2,142.2,0
			c39.2-39.3,39.2-103,0-142.2c55.4,0,100.5-45.1,100.5-100.6c0-55.5-45-100.5-100.5-100.5c39.2-39.3,39.2-103,0-142.3
			C587.5,102,523.8,102,484.5,141.2z"/>
		<path id="white-star" class="st3" d="M422.4,179.8V291l78.8-78.7c0-13.9,5.3-27.8,15.9-38.4c21.4-21.3,55.9-21.3,77,0
			c21.3,21.2,21.3,55.7,0,77c-10.6,10.6-24.5,15.9-38.5,15.9l-78.6,78.7h111.3c9.9-9.8,23.5-15.9,38.5-15.9
			c30,0,54.4,24.4,54.4,54.4c0,30-24.4,54.4-54.4,54.4c-15,0-28.6-6.1-38.5-15.9H476.9l78.6,78.7c14,0,28,5.3,38.5,16
			c21.3,21.2,21.3,55.7,0,76.9c-21.1,21.3-55.6,21.3-77,0c-10.5-10.5-15.9-24.5-15.9-38.4l-78.8-78.7v111.4c9.8,9.8,16,23.5,16,38.5
			c0,30-24.4,54.4-54.5,54.4c-30.1,0-54.5-24.3-54.5-54.4c0-15,6.2-28.7,16-38.5V476.9l-78.6,78.7c0,13.9-5.4,27.9-16,38.4
			c-21.3,21.3-55.7,21.3-77,0c-21.3-21.2-21.3-55.7,0-76.9c10.6-10.7,24.7-16,38.5-16l78.8-78.7H179.8c-9.9,9.8-23.6,15.9-38.5,15.9
			c-30.1,0-54.5-24.4-54.5-54.4c0-30,24.4-54.4,54.5-54.4c14.9,0,28.6,6.1,38.5,15.9h111.3l-78.8-78.7c-13.8,0-27.9-5.4-38.5-15.9
			c-21.3-21.3-21.3-55.8,0-77c21.3-21.3,55.7-21.3,77,0c10.6,10.6,16,24.5,16,38.4l78.6,78.7V179.8c-9.8-9.9-16-23.4-16-38.6
			c0-30,24.4-54.4,54.5-54.4c30.1,0,54.5,24.3,54.5,54.4C438.4,156.3,432.2,169.9,422.4,179.8z"/>
	</g>
	<g id="svg-textbox">
		<path id="text-backdrop" d="M40.7,384h686.4v307.2c0,25.6-12.8,38.4-38.4,38.4H79.1c-25.6,0-38.4-12.8-38.4-38.4V384z"/>
		<path id="shine" class="st4" d="M112.6,416.3h548.3c22.3,0,40.8,18.3,40.8,40.8v137.5c-211.8-26.1-421.8-62.4-629.8-59v-78.5
			C71.8,434.7,90.2,416.3,112.6,416.3L112.6,416.3z"/>
		<g id="svg-text">
			<title>SVG</title>
			<path id="S" class="st5" d="M140.6,560.1c-16.2-16.2-26.2-38.6-26.2-63.4c0-49.5,40.1-89.6,89.6-89.6c49.5,0,89.6,40.1,89.6,89.6
				h-52.5c0-20.5-16.7-37.1-37.1-37.1c-20.5,0-37.2,16.6-37.2,37.1c0,10.3,4.2,19.5,10.9,26.3l0,0c6.8,6.7,16.1,10.8,26.3,10.8v0.1
				c24.8,0,47.2,10.1,63.3,26.2l0,0c16.3,16.2,26.3,38.7,26.3,63.3c0,49.6-40.1,89.7-89.6,89.7c-49.5,0-89.6-40.1-89.6-89.7h52.4
				c0,20.6,16.7,37.1,37.2,37.1c20.5,0,37.1-16.6,37.1-37.1c0-10.2-4.2-19.4-11-26.2l0,0c-6.6-6.8-16-10.9-26.2-10.9l0,0
				C179.3,586.4,156.9,576.3,140.6,560.1L140.6,560.1L140.6,560.1z"/>
			<polygon id="V" class="st5" points="473,407.1 409.7,713.1 357.1,713.1 293.7,407.1 346.2,407.1 383.4,586.3 420.5,407.1 			"/>
			<path id="G" class="st5" d="M562.6,533.9h89.7v89.6l0,0c0,49.6-40.1,89.7-89.6,89.7c-49.5,0-89.6-40.1-89.6-89.7l0,0V496.7H473
				c0-49.5,40.3-89.7,89.6-89.7c49.6,0,89.7,40.1,89.7,89.7h-52.6c0-20.5-16.5-37.1-37.1-37.1c-20.3,0-37,16.6-37,37.1v126.7l0,0
				c0,20.5,16.7,37.1,37,37.1c20.6,0,37.1-16.6,37.1-37.1v-0.1v-37.1h-37.1L562.6,533.9L562.6,533.9z"/>
		</g>
	</g>
</a>
</svg>
